<?xml version="1.0" standalone="no"?>
<!DOCTYPE svg PUBLIC "-//W3C//DTD SVG 1.1//EN" "http://www.w3.org/Graphics/SVG/1.1/DTD/svg11.dtd">
<svg viewBox="0 0 1024 1024" version="1.1" xmlns="http://www.w3.org/2000/svg">
  <g fill="#b4b4b4">
    <path d="M511.968 452.128m-67.136 0a2.098 2.098 0 1 0 134.272 0 2.098 2.098 0 1 0-134.272 0Z"  />
    <path d="M512 86.816C277.184 86.816 86.816 277.184 86.816 512c0 234.816 190.368 425.184 425.184 425.184S937.184 746.816 937.184 512C937.184 277.184 746.816 86.816 512 86.816zM618.112 672c-47.424 70.752-95.488 129.44-95.968 129.984-2.528 3.072-6.24 4.8-10.176 4.8s-7.68-1.76-10.176-4.8c-0.48-0.576-48.576-59.264-95.936-129.984-64.64-96.512-97.376-168.8-97.376-215.072 0-54.336 21.152-105.408 59.584-143.872S457.6 253.44 512 253.44c54.336 0 105.44 21.184 143.904 59.616s59.616 89.536 59.616 143.872C715.488 503.2 682.752 575.488 618.112 672z"  />
  </g>
</svg>