<?xml version="1.0" standalone="no"?>
<!DOCTYPE svg PUBLIC "-//W3C//DTD SVG 1.1//EN" "http://www.w3.org/Graphics/SVG/1.1/DTD/svg11.dtd">
<svg class="icon" viewBox="0 0 1024 1024" version="1.1" xmlns="http://www.w3.org/2000/svg">
  <path fill="#b4b4b4" d="M436.906667 856.746667c-6.826667-6.826667-17.066667-6.826667-20.48 0l-44.373334-44.373334c61.44-78.506667 54.613333-187.733333-20.48-259.413333-81.92-78.506667-211.626667-78.506667-290.133333 0-81.92 78.506667-81.92 204.8 0 279.893333 71.68 71.68 187.733333 75.093333 269.653333 20.48l44.373334 44.373334c-6.826667 6.826667-6.826667 13.653333 0 20.48l105.813333 102.4c3.413333 3.413333 6.826667 3.413333 10.24 3.413333 3.413333 0 6.826667 0 10.24-3.413333l44.373333-40.96c6.826667-6.826667 6.826667-13.653333 0-20.48l-109.226666-102.4z m-157.013334-88.746667c-40.96 40.96-109.226667 40.96-150.186666 0-40.96-40.96-40.96-105.813333 0-143.36 40.96-40.96 109.226667-40.96 150.186666 0 44.373333 37.546667 44.373333 102.4 0 143.36m187.733334-467.626667c64.853333 191.146667 245.76 191.146667 314.026666 0 20.48-10.24 44.373333-44.373333 47.786667-68.266666 3.413333-27.306667 0-64.853333-27.306667-64.853334-10.24-92.16-61.44-167.253333-177.493333-167.253333-112.64 0-170.666667 64.853333-177.493333 163.84-30.72 0-30.72 37.546667-27.306667 64.853333 3.413333 27.306667 27.306667 61.44 47.786667 71.68m382.293333 153.6l-75.093333-13.653333-153.6 293.546667-153.6-293.546667-75.093334 13.653333c-30.72 6.826667-61.44 20.48-85.333333 37.546667 23.893333 10.24 44.373333 23.893333 61.44 44.373333 75.093333 71.68 88.746667 187.733333 37.546667 276.48l13.653333 13.653334c13.653333 0 23.893333 3.413333 34.133333 13.653333l102.4 98.986667H1024v-283.306667c0-98.986667-71.68-180.906667-174.08-201.386667z" />
</svg>