<?xml version="1.0" standalone="no"?><!DOCTYPE svg PUBLIC "-//W3C//DTD SVG 1.1//EN" "http://www.w3.org/Graphics/SVG/1.1/DTD/svg11.dtd">
<svg class="icon" viewBox="0 0 1024 1024" version="1.1" xmlns="http://www.w3.org/2000/svg">
  <g fill="#b4b4b4">
    <path d="M890.073266 396.768559l0-183.263907-373.210004 0 0-100.202143-254.066463 0 0.010233-1.760087-2.169409 1.760087-1.831718 0-65.010643 53.283554 1.381463 0-8.002254 6.51846 0-1.084705-53.283554 43.664475 0 0.798179-0.716314 0.583285 0.716314 0 0 179.702802-68.37732 0 0 510.445598 889.836371 0 0-510.445598L890.073266 396.768559zM766.191818 266.788206l70.596871 0 0 129.980353-70.596871 0L766.191818 266.788206zM642.31037 266.788206l70.597895 0 0 129.980353-70.597895 0L642.31037 266.788206zM518.418688 266.788206l70.596871 0 0 129.980353-70.596871 0L518.418688 266.788206zM187.174472 267.668249l101.46081-0.040932 0.624217-101.041254 174.330444 0 0 230.182496-276.41547 0L187.174472 267.668249zM902.065392 853.92037l-783.269263 0 0-403.868257 783.269263 0L902.065392 853.92037z" />
    <path d="M118.797152 450.052113l0 403.868257 783.269263 0 0-403.868257L118.797152 450.052113zM687.600879 766.243495l-354.340237 0L333.260641 570.178027l354.340237 0L687.600879 766.243495z" />
    <path d="M333.261665 570.178027l0 196.066491 354.340237 0L687.601902 570.178027 333.261665 570.178027zM634.318348 712.959941l-247.77313 0 0-89.49836 247.77313 0L634.318348 712.959941z" />
  </g>
</svg>