<?xml version="1.0" standalone="no"?>
<!DOCTYPE svg PUBLIC "-//W3C//DTD SVG 1.1//EN" "http://www.w3.org/Graphics/SVG/1.1/DTD/svg11.dtd">
<svg class="icon" viewBox="0 0 1024 1024" version="1.1" xmlns="http://www.w3.org/2000/svg">
  <g fill="#888888">
    <path d="M885.844 507.052c0 208.367-168.926 377.294-377.293 377.294s-377.293-168.927-377.293-377.294 168.927-377.293 377.293-377.293c208.367 0 377.293 168.926 377.293 377.293z"  />
    <path d="M508.551 884.857c-51.002 0-100.477-9.99-147.056-29.691-44.989-19.029-85.393-46.271-120.090-80.968-34.697-34.697-61.939-75.102-80.968-120.090-19.701-46.578-29.691-96.055-29.691-147.056 0-51.002 9.99-100.477 29.691-147.056 19.029-44.989 46.271-85.393 80.968-120.090 34.697-34.697 75.101-61.939 120.090-80.968 46.578-19.702 96.055-29.691 147.056-29.691s100.477 9.99 147.056 29.691c44.989 19.029 85.392 46.271 120.089 80.968s61.939 75.101 80.968 120.090c19.702 46.578 29.691 96.055 29.691 147.056 0 51.001-9.99 100.478-29.691 147.056-19.029 44.989-46.271 85.393-80.968 120.090s-75.101 61.939-120.089 80.968c-46.579 19.702-96.055 29.691-147.056 29.691zM508.551 130.27c-207.758 0-376.781 169.024-376.781 376.781 0 207.759 169.024 376.782 376.781 376.782s376.781-169.024 376.781-376.782c0-207.758-169.024-376.781-376.781-376.781z"  />
    <path d="M750.018 507.052c0 133.355-108.112 241.468-241.468 241.468s-241.468-108.112-241.468-241.468c0-133.354 108.112-241.468 241.468-241.468s241.468 108.113 241.468 241.468z"  />
    <path d="M508.551 748.848c-32.64 0-64.306-6.393-94.116-19.002-28.793-12.178-54.652-29.613-76.857-51.819-22.207-22.207-39.641-48.067-51.82-76.858-12.608-29.809-19.002-61.475-19.002-94.116s6.394-64.306 19.002-94.116c12.178-28.793 29.613-54.652 51.82-76.857 22.206-22.207 48.065-39.641 76.857-51.82 29.81-12.609 61.475-19.002 94.116-19.002s64.307 6.394 94.117 19.002c28.793 12.178 54.651 29.612 76.857 51.82 22.205 22.206 39.64 48.065 51.819 76.857 12.609 29.81 19.002 61.475 19.002 94.116s-6.393 64.307-19.002 94.116c-12.178 28.793-29.613 54.652-51.819 76.858-22.207 22.205-48.066 39.64-76.857 51.819-29.81 12.609-61.476 19.002-94.117 19.002zM508.551 265.912c-132.965 0-241.14 108.175-241.14 241.14 0 132.965 108.175 241.141 241.14 241.141s241.14-108.176 241.14-241.141c0-132.965-108.176-241.14-241.14-241.14z"  />
  </g>
</svg>