<?xml version="1.0" standalone="no"?>
<!DOCTYPE svg PUBLIC "-//W3C//DTD SVG 1.1//EN" "http://www.w3.org/Graphics/SVG/1.1/DTD/svg11.dtd">
<svg class="icon" viewBox="0 0 1024 1024" version="1.1" xmlns="http://www.w3.org/2000/svg">
  <path fill="#b4b4b4" d="M721.92 972.8H312.32c-42.496 0-76.8-34.304-76.8-76.8V419.328l-119.808 39.936c-13.312 4.608-27.648-2.56-32.256-16.384l-51.2-153.6c-4.096-12.288 1.536-25.088 12.8-31.232l307.2-153.6c8.192-4.096 17.408-3.584 25.088 1.024 7.68 4.608 12.288 12.8 12.288 21.504 0 70.656 57.344 128 128 128s128-57.344 128-128c0-8.704 4.608-16.896 12.288-22.016 7.68-4.608 16.896-5.12 25.088-1.024l307.2 153.6c11.264 5.632 16.896 18.944 12.8 31.232l-51.2 153.6c-4.608 13.312-18.944 20.48-32.256 16.384L798.72 419.328V896c0 42.496-34.304 76.8-76.8 76.8z"  />
</svg>