<?xml version="1.0" standalone="no"?>
<!DOCTYPE svg PUBLIC "-//W3C//DTD SVG 1.1//EN" "http://www.w3.org/Graphics/SVG/1.1/DTD/svg11.dtd">
<svg class="icon" viewBox="0 0 1024 1024" version="1.1" xmlns="http://www.w3.org/2000/svg">
  <path fill="#b4b4b4" d="M511.786667 85.333333C276.053333 85.333333 85.333333 276.266667 85.333333 512s190.72 426.666667 426.453333 426.666667S938.666667 747.733333 938.666667 512 747.52 85.333333 511.786667 85.333333zM807.253333 341.333333l-125.866667 0c-13.866667-53.333333-33.28-104.533333-58.88-151.893333C701.013333 216.32 766.293333 270.72 807.253333 341.333333zM512 172.16c35.626667 51.2 63.36 108.16 81.493333 169.173333l-162.986667 0C448.64 280.32 476.373333 223.36 512 172.16zM181.76 597.333333C174.72 570.026667 170.666667 541.44 170.666667 512s4.053333-58.026667 11.093333-85.333333l144 0C322.346667 454.613333 320 482.986667 320 512s2.346667 57.386667 5.973333 85.333333L181.76 597.333333zM216.533333 682.666667l125.866667 0c13.866667 53.333333 33.28 104.533333 58.88 152.106667C322.773333 807.893333 257.493333 753.28 216.533333 682.666667zM342.4 341.333333l-125.866667 0c40.96-70.613333 106.24-125.226667 184.746667-152.106667C375.68 236.8 356.266667 288 342.4 341.333333zM512 851.84c-35.413333-51.2-63.146667-108.16-81.493333-169.173333l162.986667 0C575.146667 743.68 547.413333 800.64 512 851.84zM611.84 597.333333l-199.68 0C408.106667 569.386667 405.333333 541.013333 405.333333 512s2.773333-57.386667 6.826667-85.333333l199.68 0c4.053333 27.946667 6.826667 56.32 6.826667 85.333333S615.893333 569.386667 611.84 597.333333zM622.72 834.56c25.6-47.573333 45.013333-98.56 58.88-151.893333l125.866667 0C766.293333 753.28 701.013333 807.68 622.72 834.56zM698.026667 597.333333c3.413333-27.946667 5.973333-56.32 5.973333-85.333333s-2.346667-57.386667-5.973333-85.333333l144 0C849.066667 453.973333 853.333333 482.56 853.333333 512s-4.053333 58.026667-11.306667 85.333333L698.026667 597.333333z" />
</svg>