<?xml version="1.0" standalone="no"?>
<!DOCTYPE svg PUBLIC "-//W3C//DTD SVG 1.1//EN" "http://www.w3.org/Graphics/SVG/1.1/DTD/svg11.dtd">
<svg viewBox="0 0 1024 1024" version="1.1" xmlns="http://www.w3.org/2000/svg">
  <g fill="#b4b4b4">
    <path d="M146.285958 749.714286l0 109.714286q0 7.424-5.412571 12.873143t-12.873143 5.412571l-109.714286 0q-7.424 0-12.873143-5.412571t-5.412571-12.873143l0-109.714286q0-7.424 5.412571-12.873143t12.873143-5.412571l109.714286 0q7.424 0 12.873143 5.412571t5.412571 12.873143zM146.285958 530.285714l0 109.714286q0 7.424-5.412571 12.873143t-12.873143 5.412571l-109.714286 0q-7.424 0-12.873143-5.412571t-5.412571-12.873143l0-109.714286q0-7.424 5.412571-12.873143t12.873143-5.412571l109.714286 0q7.424 0 12.873143 5.412571t5.412571 12.873143zM146.285958 310.857143l0 109.714286q0 7.424-5.412571 12.873143t-12.873143 5.412571l-109.714286 0q-7.424 0-12.873143-5.412571t-5.412571-12.873143l0-109.714286q0-7.424 5.412571-12.873143t12.873143-5.412571l109.714286 0q7.424 0 12.873143 5.412571t5.412571 12.873143zM1024.000244 749.714286l0 109.714286q0 7.424-5.412571 12.873143t-12.873143 5.412571l-768 0q-7.424 0-12.873143-5.412571t-5.412571-12.873143l0-109.714286q0-7.424 5.412571-12.873143t12.873143-5.412571l768 0q7.424 0 12.873143 5.412571t5.412571 12.873143zM146.285958 91.428571l0 109.714286q0 7.424-5.412571 12.873143t-12.873143 5.412571l-109.714286 0q-7.424 0-12.873143-5.412571t-5.412571-12.873143l0-109.714286q0-7.424 5.412571-12.873143t12.873143-5.412571l109.714286 0q7.424 0 12.873143 5.412571t5.412571 12.873143zM1024.000244 530.285714l0 109.714286q0 7.424-5.412571 12.873143t-12.873143 5.412571l-768 0q-7.424 0-12.873143-5.412571t-5.412571-12.873143l0-109.714286q0-7.424 5.412571-12.873143t12.873143-5.412571l768 0q7.424 0 12.873143 5.412571t5.412571 12.873143zM1024.000244 310.857143l0 109.714286q0 7.424-5.412571 12.873143t-12.873143 5.412571l-768 0q-7.424 0-12.873143-5.412571t-5.412571-12.873143l0-109.714286q0-7.424 5.412571-12.873143t12.873143-5.412571l768 0q7.424 0 12.873143 5.412571t5.412571 12.873143zM1024.000244 91.428571l0 109.714286q0 7.424-5.412571 12.873143t-12.873143 5.412571l-768 0q-7.424 0-12.873143-5.412571t-5.412571-12.873143l0-109.714286q0-7.424 5.412571-12.873143t12.873143-5.412571l768 0q7.424 0 12.873143 5.412571t5.412571 12.873143z" />
  </g>
</svg>