<?xml version="1.0" standalone="no"?>
<!DOCTYPE svg PUBLIC "-//W3C//DTD SVG 1.1//EN" "http://www.w3.org/Graphics/SVG/1.1/DTD/svg11.dtd">
<svg class="icon" viewBox="0 0 1024 1024" version="1.1" xmlns="http://www.w3.org/2000/svg">
  <g fill="#b4b4b4">
    <path d="M453.871 173.283c77.505 77.664 34.888 316.217 34.888 316.217s-238.076 42.724-315.583-34.941c-77.506-77.664-77.506-203.612 0-281.276 77.505-77.664 203.188-77.664 280.694 0z"  />
    <path d="M169.629 591.995c72.688-72.529 317.648-54.371 317.648-54.371s18.159 244.536-54.476 317.064c-72.688 72.529-190.483 72.529-263.171 0-72.636-72.529-72.636-190.164 0-262.694z"  />
    <path d="M853.1 591.995c72.371 72.529 72.371 190.164 0 262.641-72.371 72.529-189.741 72.529-262.112 0-72.371-72.529-54.264-317.064-54.264-317.064s244.006-18.106 316.376 54.424z"  />
    <path d="M569.971 173.283c77.188-77.664 202.341-77.664 279.529 0s77.188 203.612 0 281.276c-77.188 77.664-314.259 34.941-314.259 34.941s-42.459-238.552 34.729-316.217z"  />
  </g>
</svg>