<?xml version="1.0" standalone="no"?>
<!DOCTYPE svg PUBLIC "-//W3C//DTD SVG 1.1//EN" "http://www.w3.org/Graphics/SVG/1.1/DTD/svg11.dtd">
<svg fill="#b4b4b4" class="icon" viewBox="0 0 1024 1024" version="1.1" xmlns="http://www.w3.org/2000/svg">
  <path d="M845.76 401.6c-0.768 9.536-1.728 19.328-3.264 29.76-24.768 171.776-161.024 296.512-323.84 296.512L465.664 727.872l-9.728 10.112c36.608 67.904 104.576 112.256 180.992 112.256l52.736 0 104.384 108.864c6.72 6.976 15.872 10.752 25.152 10.752 4.352 0 8.768-0.768 12.992-2.496 13.248-5.248 21.888-18.112 21.888-32.384l0-89.024c97.152-20.096 169.024-111.36 169.024-221.632C1022.976 511.744 945.984 418.368 845.76 401.6L845.76 401.6zM792.896 424.192c2.368-16.832 3.52-32 3.52-46.4 0-165.312-124.608-299.84-277.696-299.84L278.72 77.952c-153.152 0-277.76 134.528-277.76 299.84 0 148.48 98.048 270.848 229.504 295.36l0 126.4c0 16.64 10.112 31.616 25.472 37.76 4.992 1.984 10.048 3.008 15.104 3.008 10.88 0 21.568-4.48 29.376-12.608l143.68-150.016 74.496 0C656.384 677.632 771.648 571.008 792.896 424.192L792.896 424.192zM201.472 285.12l390.4 0c10.88 0 19.904 9.408 19.904 20.928S602.752 326.976 591.872 326.976l-390.4 0c-10.88 0-19.84-9.408-19.84-20.928S190.656 285.12 201.472 285.12L201.472 285.12zM435.904 479.296 201.472 479.296c-10.88 0-19.84-9.344-19.84-20.928s8.96-20.928 19.84-20.928l234.432 0c10.88 0 19.84 9.344 19.84 20.928S446.784 479.296 435.904 479.296L435.904 479.296zM435.904 479.296" />
</svg>