<?xml version="1.0" encoding="utf-8"?>
<!DOCTYPE svg PUBLIC "-//W3C//DTD SVG 1.1//EN" "http://www.w3.org/Graphics/SVG/1.1/DTD/svg11.dtd">
<svg xmlns="http://www.w3.org/2000/svg" xmlns:xlink="http://www.w3.org/1999/xlink" viewBox="0 0 96 96">
<g fill="#b4b4b4">
	<path d="M17.476,1.75v5.415h68.933l-0.005,71.658c0,4.637-1.984,7.473-6.496,8.895V18.723c0-2.687-2.185-4.872-4.872-4.872H8.995
		c-2.687,0-4.872,2.185-4.872,4.872V89.36c0,2.688,2.185,4.873,4.872,4.873h66.04c7.132,0,16.781-4.218,16.781-15.411L91.814,1.811
		L17.476,1.75z M74.494,88.795L9.536,88.82V19.264h64.958V88.795z"/>
	<rect x="16.212" y="24.814" width="51.605" height="13.713"/>
	<rect x="16.212" y="44.503" width="30.133" height="36.811"/>
	<rect x="49.953" y="44.503" width="17.864" height="6.965"/>
	<rect x="49.953" y="57.494" width="17.864" height="6.964"/>
	<rect x="49.953" y="70.121" width="17.864" height="6.964"/>
</g>
</svg>