<?xml version="1.0" standalone="no"?>
<!DOCTYPE svg PUBLIC "-//W3C//DTD SVG 1.1//EN" "http://www.w3.org/Graphics/SVG/1.1/DTD/svg11.dtd">
<svg class="icon" viewBox="0 0 1024 1024" version="1.1" xmlns="http://www.w3.org/2000/svg">
  <path fill="#000000" d="M153.856 211.584l528.128 0c13.056 27.264 40.576 46.208 72.832 46.208l92.416 0c44.672 0 80.896-36.224 80.896-80.896 0-44.672-36.224-80.896-80.896-80.896l-92.416 0c-32.256 0-59.776 18.944-72.832 46.208L153.856 142.208c-19.072 0-34.688 15.488-34.688 34.688C119.168 196.096 134.656 211.584 153.856 211.584L153.856 211.584zM870.144 465.792 619.52 465.792c-13.056-27.264-40.576-46.208-72.832-46.208l-92.416 0c-32.256 0-59.776 18.944-72.832 46.208L153.728 465.792c-19.072 0-34.688 15.488-34.688 34.688 0 19.2 15.488 34.688 34.688 34.688L381.44 535.168c13.056 27.264 40.576 46.208 72.832 46.208l92.416 0c32.256 0 59.776-18.944 72.832-46.208l250.752 0c19.072 0 34.688-15.488 34.688-34.688C904.832 481.28 889.344 465.792 870.144 465.792L870.144 465.792zM870.144 812.416 342.144 812.416c-13.056-27.264-40.576-46.208-72.832-46.208l-92.416 0c-44.672 0-80.896 36.224-80.896 80.896 0 44.672 36.224 80.896 80.896 80.896l92.416 0c32.256 0 59.776-18.944 72.832-46.208l528.128 0c19.072 0 34.688-15.488 34.688-34.688C904.832 827.904 889.344 812.416 870.144 812.416L870.144 812.416zM870.144 812.416" />
</svg>