<?xml version="1.0" encoding="iso-8859-1"?>
<!DOCTYPE svg PUBLIC "-//W3C//DTD SVG 1.1//EN" "http://www.w3.org/Graphics/SVG/1.1/DTD/svg11.dtd">
<svg xmlns="http://www.w3.org/2000/svg" xmlns:xlink="http://www.w3.org/1999/xlink" viewBox="0 0 29.012 28.004">
<g fill="#000000">
	<g>
		<path style="fill-rule:evenodd;clip-rule:evenodd;" d="M28.012,24.027h-12c-0.552,0-1,0.448-1,1.001c0,0.553,0.448,1.001,1,1.001
			l12-0.029c0.552,0,1-0.419,1-0.972C29.012,24.475,28.565,24.027,28.012,24.027z M14.012,2.002l14-0.002c0.552,0,1-0.446,1-0.999
			c0-0.553-0.448-1.001-1-1.001h-14c-0.552,0-1,0.448-1,1.001C13.012,1.554,13.46,2.002,14.012,2.002z M15.699,18.303
			c-0.392-0.394-1.028-0.394-1.42,0l-5.267,6.061V0h-2v24.4l-5.299-6.097c-0.392-0.394-1.028-0.394-1.42,0
			c-0.392,0.394-0.392,1.032,0,1.425l6.942,7.989c0.209,0.21,0.487,0.299,0.76,0.285c0.274,0.014,0.551-0.075,0.76-0.285
			l6.942-7.989C16.091,19.335,16.091,18.697,15.699,18.303z M28.012,6.007h-14c-0.552,0-1,0.448-1,1.001S13.46,8,14.012,8h14
			c0.552,0,1-0.439,1-0.992S28.565,6.007,28.012,6.007z M28.012,12.013h-14c-0.552,0-1,0.448-1,1.001c0,0.553,0.448,0.985,1,0.985
			l14,0.016c0.552,0,1-0.448,1-1.001C29.012,12.462,28.565,12.013,28.012,12.013z M28.012,18.02h-8c-0.552,0-1,0.448-1,1.001
			c0,0.553,0.448,0.979,1,0.979h8c0.552,0,1-0.426,1-0.979C29.012,18.468,28.565,18.02,28.012,18.02z"/>
	</g>
</g>
</svg>