<?xml version="1.0" standalone="no"?><!DOCTYPE svg PUBLIC "-//W3C//DTD SVG 1.1//EN" "http://www.w3.org/Graphics/SVG/1.1/DTD/svg11.dtd">
<svg class="icon" viewBox="0 0 1024 1024" version="1.1" xmlns="http://www.w3.org/2000/svg">
  <path fill="#b4b4b4" d="M505.473024 274.770944c53.5552 4.294656 101.349376 20.765696 133.357568 67.345408 17.289216 25.160704 20.788224 53.704704 16.393216 83.468288-0.380928 2.583552-0.595968 5.239808-1.354752 7.72096-1.585152 5.167104 0.530432 7.404544 5.454848 8.6272 17.893376 4.451328 21.21216 8.915968 21.310464 27.068416 0.08704 16.840704-4.447232 32.754688-9.714688 48.485376-4.1472 12.382208-12.439552 20.257792-26.03008 20.989952-5.28896 0.28672-7.281664 2.646016-8.553472 7.7312-13.515776 53.983232-48.130048 90.446848-96.960512 114.362368-22.295552 10.923008-44.32384 6.53824-65.058816-5.2992-36.450304-20.8128-64.146432-49.709056-79.97952-89.068544-2.480128-6.165504-4.482048-12.653568-5.663744-19.17952-0.999424-5.504-3.597312-7.83872-8.870912-8.935424-11.268096-2.33984-19.355648-9.020416-24.015872-19.6096-7.462912-16.973824-11.790336-34.658304-11.225088-53.298176 0.41984-13.91104 5.697536-20.50048 19.122176-22.772736 5.77536-0.974848 6.029312-3.690496 5.733376-8.334336-1.463296-22.905856-2.434048-45.819904 2.855936-68.461568 9.494528-40.670208 31.321088-60.704768 72.660992-66.65216 3.45088-0.49664 6.946816-1.325056 10.381312-1.169408 8.35072 0.379904 14.195712-0.658432 17.231872-10.752 2.569216-8.554496 12.035072-11.191296 20.724736-12.181504C497.289216 274.392064 501.402624 274.770944 505.473024 274.770944L505.473024 274.770944zM577.408 842.100736c3.743744-10.041344 7.535616-19.989504 11.163648-29.997056 11.702272-32.259072 23.489536-64.484352 34.898944-96.846848 2.54976-7.228416 5.2992-9.322496 13.262848-6.368256 29.425664 10.918912 59.516928 20.00384 88.689664 31.643648 25.18528 10.05568 47.34976 23.69024 59.03872 49.821696 5.189632 11.599872 7.798784 23.717888 7.945216 36.373504 0.106496 9.0112-0.01024 18.03264-0.054272 27.052032-0.108544 20.83328-15.583232 36.166656-36.478976 36.171776-160.587776 0.034816-321.173504-0.038912-481.758208 0.253952-17.835008 0.033792-31.137792-5.767168-38.7072-22.421504-0.956416-2.108416-2.183168-4.368384-2.208768-6.565888-0.180224-20.00896-2.44224-40.11008 3.291136-59.838464 9.153536-31.483904 32.10752-49.05472 61.094912-59.9296 30.48448-11.430912 61.407232-21.700608 92.003328-32.838656 6.945792-2.52928 9.622528-0.581632 11.97056 6.068224 14.155776 40.018944 28.710912 79.89248 43.148288 119.81312 0.873472 2.42176 1.862656 4.805632 2.778112 7.150592 3.494912 0.247808 4.011008-2.538496 5.069824-4.333568 11.502592-19.551232 22.709248-39.286784 34.44224-58.7008 3.300352-5.465088 1.437696-8.200192-2.783232-11.534336-12.751872-10.084352-19.771392-23.348224-20.867072-39.638016-0.799744-11.820032 4.6592-20.481024 14.759936-25.61536 22.017024-11.1872 44.6976-12.17536 67.135488-1.388544 14.328832 6.89152 18.824192 17.421312 15.924224 33.124352-2.612224 14.117888-10.115072 25.25184-20.873216 34.326528-3.521536 2.973696-5.523456 5.609472-2.705408 10.269696 12.624896 20.901888 25.083904 41.905152 37.639168 62.851072C575.471616 841.403392 576.191488 841.504768 577.408 842.100736L577.408 842.100736zM716.918784 134.488064c43.922432 3.264512 84.292608 18.151424 114.46784 53.807104 18.045952 21.3248 24.655872 47.0528 22.716416 74.830848-0.502784 7.215104-0.5888 14.53568-2.756608 21.569536-1.137664 3.685376 0.39936 4.97152 4.174848 5.628928 16.758784 2.900992 20.410368 7.374848 20.620288 24.32 0.214016 17.439744-4.484096 33.900544-10.348544 50.064384-3.57376 9.839616-11.303936 14.656512-21.43232 15.094784-5.7856 0.249856-7.671808 2.75968-9.04704 8.14592-12.925952 50.532352-45.092864 84.706304-91.580416 106.461184-0.264192 0.121856-0.531456 0.238592-0.80384 0.340992-17.973248 7.068672-19.376128 5.796864-17.027072-12.818432 3.070976-24.338432-0.959488-46.97088-18.322432-65.678336-3.349504-3.605504-5.011456-7.341056-5.102592-12.389376-1.296384-70.386688-37.178368-118.365184-97.887232-149.911552-15.179776-7.891968-15.338496-7.468032-12.80512-24.567808 3.659776-24.717312 11.864064-46.852096 34.538496-60.672 14.569472-8.880128 30.8736-11.716608 47.545344-12.468224 5.733376-0.258048 8.72448-1.608704 10.35776-7.681024 2.31424-8.63744 10.041344-11.5968 18.024448-13.073408C706.501632 134.701056 710.92736 134.857728 716.918784 134.488064L716.918784 134.488064zM297.493504 134.633472c49.07008 4.777984 92.437504 20.501504 121.483264 63.405056 9.647104 14.242816 14.268416 30.309376 15.837184 47.4624 0.61952 6.765568-1.662976 9.363456-7.936 10.611712-23.844864 4.748288-45.462528 14.2336-63.27808 31.230976-24.644608 23.507968-35.173376 53.525504-39.12192 86.358016-1.248256 10.368-1.403904 20.872192-1.851392 31.322112-0.161792 3.641344-0.965632 6.652928-3.607552 9.422848-18.275328 19.156992-23.274496 42.1632-19.492864 67.743744 2.622464 17.732608 0.268288 19.82976-16.333824 12.761088-47.187968-20.091904-78.951424-54.34368-93.002752-104.04352-1.959936-6.946816-4.543488-11.127808-12.089344-12.473344-7.857152-1.398784-13.39904-6.81984-17.045504-13.838336-9.04192-17.435648-12.81024-36.100096-11.824128-55.621632 0.49152-9.84576 5.815296-16.064512 15.874048-18.138112 5.625856-1.159168 7.146496-3.719168 6.795264-8.881152-0.951296-14.188544-1.404928-28.296192-0.463872-42.610688 3.515392-53.424128 29.184-79.78496 82.873344-83.069952 5.926912-0.36352 9.271296-1.456128 11.07968-7.973888 2.486272-8.96 10.738688-11.674624 19.049472-13.0048C288.715776 134.61504 293.141504 134.828032 297.493504 134.633472L297.493504 134.633472zM190.43328 694.416384c-31.40096 0-62.80192 0.049152-94.201856-0.023552-15.797248-0.036864-28.880896-10.786816-30.464-26.595328-1.41312-14.130176-1.677312-28.50304 0.453632-42.636288 5.180416-34.470912 26.496-56.160256 57.3952-68.97152 23.607296-9.792512 47.842304-18.075648 71.829504-26.945536 10.576896-3.915776 10.660864-3.84 14.135296 6.566912 11.8784 35.562496 23.703552 71.135232 35.597312 106.693632 0.891904 2.664448 0.672768 6.90176 3.63008 7.369728 3.642368 0.576512 4.524032-3.899392 6.177792-6.39488 9.31328-14.053376 18.204672-28.393472 27.706368-42.313728 3.43552-5.035008 2.54464-7.632896-1.994752-11.298816-11.4688-9.266176-19.136512-20.994048-20.046848-36.245504-0.541696-9.007104 3.377152-15.765504 11.000832-20.330496 10.328064-6.185984 21.617664-8.13056 33.536-7.330816 3.772416 0.25088 5.722112 2.300928 7.057408 5.474304 5.738496 13.61408 13.995008 25.449472 25.152512 35.15904 3.310592 2.874368 3.310592 5.615616 1.083392 9.117696-3.641344 5.709824-7.863296 11.008-13.356032 14.813184-4.815872 3.341312-4.732928 6.12864-1.696768 10.60352 12.886016 19.009536 25.472 38.217728 38.234112 57.312256 5.946368 8.891392 5.8112 9.690112-4.113408 13.190144-19.72736 6.965248-39.91552 12.62592-59.198464 20.868096-4.3776 1.870848-9.023488 1.954816-13.707264 1.948672C253.24032 694.402048 221.83424 694.421504 190.43328 694.416384L190.43328 694.416384zM834.526208 694.4512c-30.532608 0-61.064192-0.185344-91.597824 0.120832-8.126464 0.082944-15.446016-2.246656-22.856704-4.796416-17.313792-5.952512-34.608128-11.971584-51.909632-17.957888-9.316352-3.221504-9.641984-4.182016-4.202496-12.611584 12.469248-19.290112 24.798208-38.682624 37.52448-57.796608 3.206144-4.815872 3.629056-8.02816-1.6128-11.342848-2.413568-1.52064-4.363264-3.830784-6.347776-5.952512-8.64768-9.255936-8.476672-10.121216 0.395264-19.078144 8.690688-8.778752 15.611904-18.915328 19.542016-30.645248 2.260992-6.740992 6.074368-8.912896 12.916736-8.579072 14.768128 0.715776 30.026752 2.5344 36.16256 17.670144 6.488064 15.992832-1.511424 30.020608-12.669952 41.801728-10.53184 11.11552-10.752 11.040768-2.415616 23.87968 7.906304 12.181504 15.96928 24.26368 24.039424 36.337664 1.22368 1.826816 1.96096 4.937728 4.666368 4.512768 2.593792-0.403456 2.603008-3.52768 3.30752-5.644288 12.094464-36.109312 24.39168-72.155136 36.007936-108.420096 2.695168-8.413184 5.767168-10.3168 14.153728-6.941696 26.140672 10.494976 53.395456 18.1504 78.746624 30.713856 33.19296 16.446464 51.393536 42.528768 51.545088 80.201728 0.03072 7.566336 0.155648 15.1296-0.043008 22.68672-0.505856 19.027968-12.995584 31.66208-32.004096 31.804416-31.115264 0.234496-62.230528 0.064512-93.345792 0.064512C834.526208 694.470656 834.526208 694.458368 834.526208 694.4512L834.526208 694.4512zM834.526208 694.4512" />
</svg>